<?xml version="1.0" standalone="no"?>
<!DOCTYPE svg PUBLIC "-//W3C//DTD SVG 20010904//EN"
 "http://www.w3.org/TR/2001/REC-SVG-20010904/DTD/svg10.dtd">
<svg version="1.0" xmlns="http://www.w3.org/2000/svg"
 width="700.000000pt" height="700.000000pt" viewBox="0 0 700.000000 700.000000"
 preserveAspectRatio="xMidYMid meet">
<metadata>
Created by potrace 1.11, written by Peter Selinger 2001-2013
</metadata>
<g transform="translate(0.000000,700.000000) scale(0.100000,-0.100000)"
fill="#000000" stroke="none">
<path d="M2645 6989 c-740 -9 -1041 -27 -1252 -75 -660 -149 -1182 -674 -1312
-1320 -51 -248 -68 -615 -76 -1644 -6 -732 6 -1739 25 -2035 37 -581 112 -860
300 -1110 79 -106 363 -390 470 -471 181 -137 377 -213 660 -258 281 -43 484
-54 1317 -67 744 -13 1982 -1 2313 21 587 39 858 113 1110 304 107 81 391 365
470 471 187 249 261 523 300 1105 22 331 34 1569 21 2312 -13 834 -24 1037
-67 1318 -44 280 -121 478 -254 655 -68 91 -320 348 -425 435 -268 220 -550
302 -1170 340 -410 25 -1342 33 -2430 19z m-604 -1172 c22 -15 38 -36 45 -62
15 -50 17 -237 3 -288 -15 -57 -43 -69 -188 -83 -136 -12 -182 -28 -235 -80
-96 -96 -112 -300 -76 -948 32 -569 24 -624 -115 -802 -80 -102 -98 -140 -85
-183 5 -18 42 -78 82 -134 138 -194 150 -262 122 -717 -11 -168 -19 -417 -19
-555 0 -281 12 -365 65 -448 51 -81 97 -105 315 -166 66 -18 105 -48 127 -98
17 -39 20 -61 16 -157 -6 -171 -30 -193 -212 -183 -234 12 -503 132 -666 296
-155 157 -184 302 -160 796 39 805 28 965 -73 1069 -42 43 -76 60 -192 91
-107 30 -149 100 -150 247 0 70 2 79 31 115 35 44 78 69 264 154 74 34 137 63
139 65 1 2 -5 204 -14 451 -24 620 -12 921 45 1129 45 166 140 298 270 375
126 74 369 136 541 138 74 1 91 -2 120 -22z m3257 -16 c67 -17 166 -47 220
-67 173 -64 252 -120 325 -232 137 -207 165 -511 96 -1051 -26 -211 -35 -447
-20 -536 28 -162 84 -220 286 -300 130 -52 155 -83 155 -193 0 -92 -23 -164
-65 -206 -26 -27 -49 -38 -106 -50 -98 -23 -138 -41 -181 -83 -105 -102 -120
-289 -62 -778 74 -623 1 -973 -244 -1178 -72 -61 -233 -140 -337 -166 -91 -23
-285 -51 -348 -51 -101 0 -117 26 -117 192 0 89 4 122 19 154 29 64 36 68 299
144 96 28 171 96 197 180 29 92 30 327 5 721 -26 397 -23 569 10 688 21 75 73
187 112 245 36 53 111 126 130 126 38 0 15 38 -76 125 -98 94 -126 137 -144
220 -21 97 -23 150 -32 723 -5 317 -14 613 -20 657 -18 149 -60 233 -134 272
-17 9 -86 21 -163 28 -88 8 -141 18 -157 29 -38 24 -49 82 -43 226 4 122 16
176 40 193 25 17 229 -1 355 -32z m-2608 -2187 c125 -58 185 -161 160 -278
-31 -150 -178 -255 -319 -227 -105 21 -171 87 -193 195 -11 49 -10 67 5 123
46 176 197 257 347 187z m910 0 c125 -58 185 -161 160 -278 -31 -150 -178
-255 -319 -227 -105 21 -171 87 -193 195 -11 49 -10 67 5 123 46 176 197 257
347 187z m927 -3 c87 -44 147 -124 159 -213 13 -94 -44 -201 -135 -251 -68
-39 -177 -49 -245 -23 -100 38 -152 128 -144 250 4 58 11 86 35 127 31 56 97
110 157 129 45 14 127 5 173 -19z"/>
</g>
</svg>
