<?xml version="1.0" standalone="no"?>
<!DOCTYPE svg PUBLIC "-//W3C//DTD SVG 20010904//EN"
 "http://www.w3.org/TR/2001/REC-SVG-20010904/DTD/svg10.dtd">
<svg version="1.0" xmlns="http://www.w3.org/2000/svg"
 width="700.000000pt" height="700.000000pt" viewBox="0 0 700.000000 700.000000"
 preserveAspectRatio="xMidYMid meet">
<metadata>
Created by potrace 1.11, written by Peter Selinger 2001-2013
</metadata>
<g transform="translate(0.000000,700.000000) scale(0.100000,-0.100000)"
fill="#000000" stroke="none">
<path d="M2527 6994 c-1 -1 -130 -5 -287 -8 -157 -4 -307 -8 -335 -10 -27 -2
-95 -7 -150 -10 -506 -34 -881 -194 -1201 -511 -185 -184 -299 -349 -387 -565
-35 -84 -84 -245 -91 -298 -2 -15 -9 -58 -15 -97 -14 -89 -19 -139 -27 -245
-3 -47 -7 -103 -9 -125 -27 -288 -27 -2835 0 -3185 2 -30 7 -91 10 -135 34
-483 117 -765 292 -1000 87 -116 363 -392 478 -478 95 -72 247 -151 355 -186
155 -50 399 -90 656 -106 49 -3 112 -8 139 -10 293 -27 2686 -27 3100 0 104 7
219 15 260 20 106 11 161 17 175 20 8 1 31 5 50 9 19 3 53 8 75 12 72 11 228
55 305 85 125 50 248 126 359 222 94 82 333 332 394 412 99 132 190 330 221
485 3 14 10 43 15 65 5 22 13 65 16 95 4 30 8 57 10 60 2 3 6 39 10 79 4 41 8
82 10 92 2 9 6 63 10 120 4 57 9 124 11 149 26 339 26 2627 -1 3105 -32 578
-113 888 -295 1130 -184 245 -492 518 -694 615 -111 52 -299 106 -436 125 -25
3 -56 8 -70 10 -14 3 -47 7 -75 10 -27 2 -70 7 -95 10 -69 8 -287 22 -505 31
-104 5 -2273 13 -2278 8z"/>
</g>
</svg>
