<?xml version="1.0" standalone="no"?>
<!DOCTYPE svg PUBLIC "-//W3C//DTD SVG 20010904//EN"
 "http://www.w3.org/TR/2001/REC-SVG-20010904/DTD/svg10.dtd">
<svg version="1.0" xmlns="http://www.w3.org/2000/svg"
 width="100.000000pt" height="100.000000pt" viewBox="0 0 100.000000 100.000000"
 preserveAspectRatio="xMidYMid meet">
<metadata>
Created by potrace 1.11, written by Peter Selinger 2001-2013
</metadata>
<g transform="translate(0.000000,100.000000) scale(0.100000,-0.100000)"
fill="#000000" stroke="none">
<path d="M170 980 c-72 -25 -133 -88 -154 -160 -13 -43 -16 -106 -16 -320 0
-317 6 -349 79 -421 72 -73 104 -79 421 -79 317 0 349 6 421 79 73 72 79 104
79 421 0 317 -6 349 -79 421 -73 73 -103 79 -425 79 -239 -1 -277 -3 -326 -20z
m130 -181 c0 -24 -4 -29 -24 -29 -49 0 -58 -22 -50 -134 6 -92 5 -103 -14
-126 -20 -24 -20 -24 1 -52 18 -24 19 -36 13 -123 -7 -108 -1 -130 44 -140 25
-5 30 -11 30 -36 0 -24 -4 -29 -25 -29 -40 0 -92 26 -111 55 -14 22 -16 41
-11 129 7 109 1 131 -38 138 -13 2 -21 12 -23 29 -2 20 4 28 30 39 l33 15 -4
106 c-4 144 15 178 109 192 35 4 40 0 40 -34z m514 8 c36 -24 47 -76 35 -164
-12 -89 -6 -111 32 -125 25 -8 30 -15 27 -37 -2 -18 -10 -27 -26 -29 -37 -6
-45 -34 -33 -123 17 -126 -14 -184 -107 -196 -41 -6 -42 -5 -42 25 0 26 5 31
29 37 49 10 54 24 46 128 -6 77 -4 99 9 125 9 18 21 32 27 32 6 0 1 9 -12 19
-23 18 -24 25 -24 135 0 125 -4 136 -52 136 -19 0 -23 6 -23 28 0 16 2 31 5
34 9 9 83 -8 109 -25z m-414 -302 c23 -28 -9 -72 -45 -59 -36 14 -24 74 15 74
10 0 23 -7 30 -15z m130 0 c23 -28 -9 -72 -45 -59 -36 14 -24 74 15 74 10 0
23 -7 30 -15z m128 3 c18 -18 14 -46 -7 -58 -38 -20 -71 13 -51 51 12 21 40
25 58 7z"/>
</g>
</svg>
