<?xml version="1.0" encoding="UTF-8" standalone="no"?>
<svg
   xmlns:dc="http://purl.org/dc/elements/1.1/"
   xmlns:cc="http://creativecommons.org/ns#"
   xmlns:rdf="http://www.w3.org/1999/02/22-rdf-syntax-ns#"
   xmlns:svg="http://www.w3.org/2000/svg"
   xmlns="http://www.w3.org/2000/svg"
   xmlns:sodipodi="http://sodipodi.sourceforge.net/DTD/sodipodi-0.dtd"
   xmlns:inkscape="http://www.inkscape.org/namespaces/inkscape"
   version="1.0"
   width="100.000000pt"
   height="100.000000pt"
   viewBox="0 0 100.000000 100.000000"
   preserveAspectRatio="xMidYMid meet"
   id="svg8"
   sodipodi:docname="vok_icon.svg"
   inkscape:version="0.92.3 (2405546, 2018-03-11)">
  <defs
     id="defs12" />
  <sodipodi:namedview
     pagecolor="#ffffff"
     bordercolor="#666666"
     borderopacity="1"
     objecttolerance="10"
     gridtolerance="10"
     guidetolerance="10"
     inkscape:pageopacity="0"
     inkscape:pageshadow="2"
     inkscape:window-width="1853"
     inkscape:window-height="1136"
     id="namedview10"
     showgrid="false"
     inkscape:zoom="3.54"
     inkscape:cx="39.430959"
     inkscape:cy="59.664043"
     inkscape:window-x="67"
     inkscape:window-y="27"
     inkscape:window-maximized="1"
     inkscape:current-layer="svg8" />
  <metadata
     id="metadata2">
Created by potrace 1.11, written by Peter Selinger 2001-2013
<rdf:RDF>
  <cc:Work
     rdf:about="">
    <dc:format>image/svg+xml</dc:format>
    <dc:type
       rdf:resource="http://purl.org/dc/dcmitype/StillImage" />
    <dc:title />
  </cc:Work>
</rdf:RDF>
</metadata>
  <path
     style="fill:#000000;stroke:none;stroke-width:0.1"
     inkscape:connector-curvature="0"
     id="path4"
     d="M 17,2 C 9.8,4.5 3.7,10.8 1.6,18 0.3,22.3 0,28.6 0,50 0,81.7 0.6,84.9 7.9,92.1 15.1,99.4 18.3,100 50,100 81.7,100 84.9,99.4 92.1,92.1 99.4,84.9 100,81.7 100,50 100,18.3 99.4,15.1 92.1,7.9 84.8,0.6 81.8,0 49.6,0 25.7,0.1 21.9,0.3 17,2 Z"
     sodipodi:nodetypes="ccscscsccc" />
  <path
     inkscape:connector-curvature="0"
     style="fill:#2389bf;fill-rule:evenodd;stroke:none;stroke-width:0.24561536"
     id="path0"
     d="m 28.360598,16.621691 c -0.324213,0.04741 -1.310359,0.128457 -2.191381,0.180036 -1.547131,0.09063 -2.462294,0.228422 -2.77005,0.416809 -0.41116,0.251756 -1.223656,0.581617 -1.5685,0.636635 -0.22744,0.03635 -0.543546,0.193299 -0.761162,0.377756 -0.204598,0.173651 -0.571055,0.431792 -0.814215,0.573758 -0.477721,0.279019 -1.792992,1.510534 -2.112292,1.97794 -0.108071,0.158177 -0.336248,0.455862 -0.506704,0.661688 -0.170704,0.205825 -0.405757,0.673232 -0.522425,1.038708 -0.116666,0.365475 -0.328141,0.841478 -0.469861,1.057619 -0.356879,0.544529 -0.649408,2.648471 -0.628039,4.519323 0.03562,3.149034 0.307019,6.859793 0.571055,7.810569 0.747408,2.689243 0.788425,8.747346 0.06337,9.349104 -0.08547,0.07073 -0.235053,0.314633 -0.332317,0.541582 -0.174633,0.407721 -0.506705,0.818145 -0.661933,0.818145 -0.04372,0 -0.174388,0.128211 -0.290318,0.284914 -0.149335,0.202141 -0.404283,0.347054 -0.878075,0.500073 -0.367195,0.118387 -0.711793,0.25151 -0.765829,0.295966 -0.05404,0.04422 -0.341405,0.130913 -0.638599,0.192563 -1.453798,0.301124 -1.941345,0.386844 -2.231661,0.39151 -0.483371,0.0078 -0.519477,0.173159 -0.517757,2.38124 0.0017,2.552435 -0.056,2.430364 1.252883,2.644541 0.553617,0.09038 1.149971,0.231615 1.325095,0.31365 0.175369,0.08179 0.506704,0.19723 0.736355,0.256423 0.22965,0.05919 0.596109,0.154001 0.814215,0.210984 0.218352,0.05674 0.516774,0.209756 0.663161,0.339686 0.146632,0.130176 0.416809,0.358353 0.600529,0.507441 0.183721,0.148843 0.433266,0.495161 0.5546,0.769268 0.121334,0.274351 0.289335,0.555827 0.373582,0.625828 0.508423,0.421721 0.735863,5.908035 0.312176,7.534254 -0.08228,0.316352 -0.149825,0.833619 -0.149825,1.149234 0,0.3473 -0.06509,0.697793 -0.1653,0.888145 -0.425159,0.809057 -0.749126,5.749367 -0.581371,8.861804 0.08204,1.517903 0.305791,2.814507 0.558284,3.233526 0.250036,0.415336 0.483126,0.940461 0.483126,1.088814 0,0.249053 0.389791,0.994005 0.629266,1.202041 0.135579,0.117896 0.332563,0.382177 0.437932,0.587266 0.105123,0.204844 0.339195,0.507196 0.519968,0.671758 0.180772,0.164317 0.377265,0.385371 0.436705,0.491231 0.05919,0.105615 0.234562,0.258388 0.3893,0.339441 0.154983,0.08105 0.341651,0.202632 0.414844,0.270177 0.07344,0.06754 0.17144,0.122807 0.218107,0.122807 0.04643,0 0.110526,0.08179 0.142211,0.182001 0.03684,0.115931 0.3473,0.29523 0.85818,0.495161 0.440388,0.172422 0.877338,0.401826 0.971163,0.509897 0.254703,0.293756 0.625337,0.394213 2.492996,0.675934 0.432528,0.06533 0.980005,0.223756 1.22734,0.355405 0.525371,0.279756 4.392585,0.376528 4.597183,0.114948 0.23137,-0.295721 0.321019,-1.146778 0.321019,-3.049315 0,-2.318854 -0.0037,-2.32917 -0.842706,-2.330398 -1.353095,-0.0023 -2.749173,-0.298423 -3.680301,-0.780811 -0.08326,-0.04322 -0.341896,-0.110527 -0.574986,-0.150071 -0.307264,-0.05183 -0.53888,-0.18323 -0.843443,-0.478705 -0.230879,-0.224001 -0.494669,-0.451441 -0.586038,-0.505476 -0.180282,-0.106352 -0.328142,-0.345335 -0.639091,-1.031585 -0.110036,-0.243159 -0.28123,-0.574739 -0.380212,-0.736846 -0.455863,-0.746425 -0.589232,-6.67116 -0.184704,-8.203555 0.07859,-0.297194 0.172177,-0.77639 0.208282,-1.064742 0.03611,-0.288353 0.104878,-0.597828 0.152773,-0.687723 0.541091,-1.013654 0.635161,-9.132719 0.115193,-9.962409 C 23.183518,55.562534 23.025832,55.208601 22.860534,54.624037 22.750252,54.233754 22.5599,53.905366 22.21653,53.512873 21.948318,53.20659 21.728984,52.899817 21.728984,52.83129 c 0,-0.156703 -0.37923,-0.508669 -0.638601,-0.59267 -0.190597,-0.06165 -1.033057,-0.818145 -1.513727,-1.359235 l -0.236282,-0.266247 0.334528,-0.294985 c 0.184212,-0.162351 0.480915,-0.365475 0.659478,-0.451194 0.178562,-0.08572 0.36916,-0.253722 0.423686,-0.373336 0.05428,-0.119369 0.2913,-0.338948 0.526599,-0.487791 0.2353,-0.148842 0.471828,-0.390528 0.525863,-0.536915 0.05379,-0.146633 0.275581,-0.456599 0.492704,-0.689196 0.217124,-0.232352 0.423441,-0.55239 0.458319,-0.711057 0.03463,-0.158667 0.104141,-0.313897 0.154001,-0.344598 0.04986,-0.03095 0.09088,-0.130914 0.09088,-0.222283 2.45e-4,-0.09136 0.09801,-0.320774 0.217124,-0.509898 0.118877,-0.189123 0.273124,-0.498599 0.342387,-0.687723 0.469617,-1.282112 0.3446,-8.733837 -0.16579,-9.873737 -0.669792,-1.496043 -0.818635,-8.701662 -0.204843,-9.92237 0.371616,-0.739057 1.040427,-1.707273 1.274989,-1.846291 0.140247,-0.08302 0.409933,-0.303089 0.599057,-0.488775 0.565897,-0.556318 1.16569,-0.693618 3.716652,-0.85204 2.042537,-0.126737 1.981624,-0.02874 1.981624,-3.188332 0,-2.648717 -0.180773,-2.83735 -2.40703,-2.510926 m 42.616968,-0.03193 c -0.765829,0.06927 -0.813233,0.230387 -0.813233,2.762191 0,1.217024 0.03979,2.189661 0.09063,2.2211 0.04986,0.0307 0.119861,0.188142 0.15523,0.349756 0.03537,0.161369 0.116176,0.297685 0.179544,0.302598 0.06312,0.005 0.82232,0.04666 1.686886,0.0926 2.123346,0.112492 3.038999,0.297195 3.389493,0.683302 0.08105,0.08916 0.302107,0.247089 0.491231,0.350493 0.546493,0.29916 0.787442,0.55067 0.999409,1.043374 0.108807,0.252984 0.28565,0.539372 0.39323,0.636635 0.254949,0.230634 0.474283,0.76411 0.473301,1.150955 -2.46e-4,0.168983 0.07467,0.754038 0.166526,1.300041 0.148844,0.882005 0.15351,1.15562 0.04299,2.456154 -0.06829,0.804881 -0.163581,2.104432 -0.211475,2.887946 -0.125019,2.037379 -0.278037,3.147315 -0.482389,3.49658 -0.281721,0.481898 -0.425406,2.551207 -0.385125,5.542066 l 0.03512,2.603522 0.373336,0.754285 c 0.205579,0.41509 0.400353,0.923514 0.433265,1.129831 0.06632,0.417055 0.16186,0.586039 0.839022,1.485482 0.256668,0.340914 0.466669,0.680846 0.466669,0.755268 0,0.07467 0.08965,0.16407 0.19944,0.198948 0.109544,0.03463 0.385861,0.251265 0.614037,0.481159 0.227932,0.229896 0.547232,0.502529 0.709338,0.605933 0.358844,0.228422 0.494178,0.330353 0.758706,0.57253 l 0.204598,0.186913 -0.383406,0.340177 c -0.210984,0.187159 -0.609863,0.545266 -0.886672,0.795548 -0.276562,0.250528 -0.624354,0.54281 -0.77246,0.649407 -0.148106,0.106843 -0.423687,0.438424 -0.612319,0.736846 -0.188633,0.298669 -0.46716,0.675443 -0.618705,0.837549 -0.151544,0.162105 -0.328633,0.493686 -0.393475,0.736846 -0.06484,0.243159 -0.154492,0.530529 -0.199194,0.6386 -0.0447,0.108071 -0.112001,0.307019 -0.149335,0.442107 -0.03758,0.135089 -0.14393,0.356142 -0.236282,0.491231 -0.537161,0.784986 -0.544774,7.184744 -0.01081,8.888823 0.292773,0.93383 0.396178,1.711448 0.542318,4.079671 0.07492,1.215797 0.168001,2.487103 0.206809,2.82507 0.149089,1.300287 -0.314388,4.171041 -0.732671,4.537744 -0.09578,0.08424 -0.253966,0.32151 -0.350984,0.527337 -0.09726,0.206071 -0.286387,0.449229 -0.420248,0.540353 -0.225229,0.153509 -0.51923,0.429827 -0.864812,0.812496 -0.07713,0.08547 -0.328142,0.202878 -0.558038,0.261089 -0.22965,0.05797 -0.749372,0.224247 -1.154637,0.368914 -1.23692,0.442108 -1.738466,0.541091 -2.740577,0.541091 -1.358253,0 -1.287761,-0.134843 -1.286041,2.463768 0.0013,2.067098 0.07492,2.66247 0.363756,2.951313 0.21,0.210001 4.435568,0.05772 4.890938,-0.176352 0.216142,-0.111018 0.835093,-0.278281 1.375446,-0.371615 1.194673,-0.206317 1.719062,-0.372108 2.191135,-0.692881 0.197966,-0.134352 0.416318,-0.244387 0.485582,-0.244387 0.06927,0 0.202632,-0.04053 0.296457,-0.0899 0.09382,-0.04962 0.333791,-0.160879 0.532985,-0.247336 0.19944,-0.0867 0.389546,-0.242913 0.422704,-0.347299 0.03316,-0.104141 0.15351,-0.219335 0.267721,-0.255441 0.23923,-0.07614 1.845554,-1.630149 1.845554,-1.785623 0,-0.05723 0.156211,-0.260107 0.347054,-0.45095 0.222282,-0.222282 0.41902,-0.566389 0.547231,-0.957164 0.178808,-0.544774 0.421476,-1.032566 0.5826,-1.171584 0.197966,-0.170703 0.364494,-0.996707 0.603969,-2.996508 0.150808,-1.259515 0.204352,-3.874337 0.09161,-4.4702 -0.05625,-0.297194 -0.173159,-1.535097 -0.259861,-2.750893 -0.154492,-2.170012 -0.274107,-3.049069 -0.587512,-4.322831 -0.253967,-1.032321 -0.363757,-2.673031 -0.30923,-4.617572 0.05281,-1.873308 0.08867,-2.051133 0.554108,-2.750892 0.0899,-0.135088 0.23751,-0.444564 0.328142,-0.687722 0.108562,-0.2913 0.28516,-0.523898 0.517757,-0.682075 0.194282,-0.131896 0.499336,-0.386107 0.678145,-0.564915 0.178808,-0.178808 0.386844,-0.324949 0.462493,-0.324949 0.07565,0 0.179545,-0.0361 0.230879,-0.08032 0.05133,-0.04421 0.336492,-0.138772 0.633687,-0.210246 0.297194,-0.07148 0.871444,-0.234317 1.275972,-0.361792 0.404529,-0.127474 0.964778,-0.231861 1.244779,-0.231861 0.849092,0 0.917864,-0.196983 0.917864,-2.62882 0,-2.433065 0.04397,-2.344889 -1.240357,-2.487101 -0.529301,-0.05846 -1.233726,-0.222036 -1.719307,-0.398633 -0.45267,-0.164563 -0.999656,-0.347055 -1.215797,-0.405266 -0.492459,-0.132631 -0.811268,-0.334528 -0.882495,-0.558774 -0.03023,-0.0953 -0.203616,-0.253476 -0.385126,-0.351231 -0.322984,-0.173895 -0.648179,-0.59488 -0.648179,-0.839267 0,-0.06754 -0.102176,-0.259616 -0.227194,-0.42688 -0.487301,-0.6526 -0.509652,-0.814706 -0.509652,-3.693564 0,-2.68998 0.02332,-2.94935 0.394213,-4.371954 0.235791,-0.904356 0.3473,-1.756641 0.450213,-3.438615 0.056,-0.918602 0.146141,-2.045976 0.200176,-2.505277 0.157439,-1.337375 0.212212,-3.825459 0.09628,-4.371954 -0.05747,-0.270177 -0.173159,-1.074567 -0.25716,-1.787588 -0.153509,-1.301025 -0.212457,-1.500956 -0.604213,-2.04745 -0.116422,-0.162352 -0.287616,-0.527828 -0.380704,-0.812251 -0.09776,-0.299159 -0.343616,-0.712038 -0.583337,-0.98025 -0.227931,-0.255195 -0.476494,-0.594881 -0.552634,-0.755022 -0.07615,-0.160141 -0.316844,-0.410914 -0.535442,-0.557546 -0.218352,-0.146633 -0.453651,-0.372599 -0.523161,-0.502284 -0.06951,-0.129685 -0.31537,-0.313896 -0.546739,-0.409195 -0.231124,-0.0953 -0.658003,-0.353195 -0.948321,-0.573021 -0.290317,-0.21958 -0.705653,-0.43916 -0.922776,-0.487792 -0.21737,-0.04839 -0.704672,-0.231861 -1.082919,-0.407722 -1.123199,-0.521932 -1.380849,-0.575476 -3.186368,-0.66267 -0.949303,-0.04568 -2.035414,-0.126246 -2.413662,-0.178562 -0.701969,-0.09726 -0.772952,-0.09874 -1.495552,-0.03365 M 36.49734,47.33344 c -0.204106,0.02972 -0.459055,0.196739 -0.735373,0.481652 -0.232597,0.239967 -0.46937,0.436458 -0.526107,0.436458 -0.113475,0 -0.440143,0.505476 -0.440143,0.681092 0,0.06067 -0.159158,0.445545 -0.35344,0.855231 -0.387827,0.817408 -0.3893,0.892812 -0.03684,1.902292 0.603231,1.727657 1.114111,2.329907 2.133169,2.513381 0.203125,0.0366 0.42295,0.109053 0.488529,0.160878 0.141966,0.112738 1.067199,0.04962 1.732571,-0.118141 0.683057,-0.171931 1.38306,-0.638108 1.600185,-1.065479 0.100701,-0.198457 0.209755,-0.382915 0.242422,-0.409932 0.107088,-0.08892 0.499091,-1.21899 0.579652,-1.670184 0.09555,-0.536179 0.03316,-0.905339 -0.240703,-1.42457 -0.113964,-0.216141 -0.283194,-0.592914 -0.376036,-0.837547 -0.116668,-0.307264 -0.354423,-0.607898 -0.769759,-0.973374 l -0.600775,-0.52881 -1.192463,-0.02407 c -0.655792,-0.01326 -1.332954,-0.0037 -1.504885,0.02113 m 12.870246,0.0073 c -0.335511,0.03045 -0.479196,0.113475 -0.78597,0.45488 -0.206317,0.22965 -0.452668,0.44702 -0.547476,0.48288 -0.09456,0.03586 -0.243896,0.232352 -0.33158,0.436704 -0.08793,0.204106 -0.213195,0.481897 -0.278774,0.616984 -0.258387,0.534213 -0.384143,1.357516 -0.266493,1.743869 0.06165,0.202633 0.184703,0.673968 0.27337,1.04755 0.221791,0.933338 0.49909,1.407867 0.972145,1.663061 0.216142,0.116667 0.415091,0.236773 0.442108,0.266493 0.412634,0.456844 2.426435,0.395441 3.511318,-0.107088 0.228913,-0.106106 0.462002,-0.192808 0.517757,-0.192808 0.05575,0 0.151299,-0.12158 0.212211,-0.270177 0.06067,-0.148597 0.288107,-0.645723 0.505477,-1.104533 0.513581,-1.085374 0.574494,-2.283977 0.14565,-2.859454 -0.137053,-0.183966 -0.280493,-0.466914 -0.319054,-0.629019 -0.116422,-0.491231 -1.26885,-1.487447 -1.805519,-1.561131 -0.445546,-0.06116 -1.504394,-0.05551 -2.24517,0.01179 m 12.986175,-0.01375 c -0.10807,0.02628 -0.294738,0.06877 -0.414598,0.09432 -0.120106,0.02555 -0.381441,0.222773 -0.580635,0.438424 -0.19944,0.215404 -0.420739,0.391755 -0.491968,0.391755 -0.67839,0 -1.051725,3.064543 -0.532494,4.370725 0.361545,0.910005 0.860636,1.310112 2.091169,1.67657 0.543302,0.161861 0.832637,0.160142 1.844326,-0.01058 0.709091,-0.119615 1.547132,-0.624354 1.709237,-1.029374 0.08204,-0.205334 0.191335,-0.399124 0.24316,-0.431055 0.51923,-0.321018 0.799723,-2.918892 0.362037,-3.356579 -0.09653,-0.09678 -0.261826,-0.37751 -0.366704,-0.624107 -0.182246,-0.427616 -0.422949,-0.692635 -1.138918,-1.254112 -0.318809,-0.250037 -2.084292,-0.422214 -2.724612,-0.266002" />
</svg>
