<?xml version="1.0" encoding="UTF-8" standalone="no"?>
<!-- Created with Inkscape (http://www.inkscape.org/) -->

<svg
   xmlns:dc="http://purl.org/dc/elements/1.1/"
   xmlns:cc="http://creativecommons.org/ns#"
   xmlns:rdf="http://www.w3.org/1999/02/22-rdf-syntax-ns#"
   xmlns:svg="http://www.w3.org/2000/svg"
   xmlns="http://www.w3.org/2000/svg"
   xmlns:sodipodi="http://sodipodi.sourceforge.net/DTD/sodipodi-0.dtd"
   xmlns:inkscape="http://www.inkscape.org/namespaces/inkscape"
   width="103.06428mm"
   height="16.03389mm"
   viewBox="0 0 103.06428 16.03389"
   version="1.1"
   id="svg882"
   inkscape:version="0.92.3 (2405546, 2018-03-11)"
   sodipodi:docname="vok_logo_small.svg">
  <defs
     id="defs876" />
  <sodipodi:namedview
     id="base"
     pagecolor="#ffffff"
     bordercolor="#666666"
     borderopacity="1.0"
     inkscape:pageopacity="0.0"
     inkscape:pageshadow="2"
     inkscape:zoom="0.98994949"
     inkscape:cx="404.52327"
     inkscape:cy="-186.88128"
     inkscape:document-units="mm"
     inkscape:current-layer="layer1"
     showgrid="false"
     fit-margin-top="0"
     fit-margin-left="0"
     fit-margin-right="0"
     fit-margin-bottom="0"
     inkscape:window-width="1853"
     inkscape:window-height="1136"
     inkscape:window-x="67"
     inkscape:window-y="27"
     inkscape:window-maximized="1" />
  <metadata
     id="metadata879">
    <rdf:RDF>
      <cc:Work
         rdf:about="">
        <dc:format>image/svg+xml</dc:format>
        <dc:type
           rdf:resource="http://purl.org/dc/dcmitype/StillImage" />
        <dc:title></dc:title>
      </cc:Work>
    </rdf:RDF>
  </metadata>
  <g
     inkscape:label="Layer 1"
     inkscape:groupmode="layer"
     id="layer1"
     transform="translate(32.119808,-43.298534)">
    <rect
       style="opacity:0.95;fill:#0d0d0d;fill-opacity:1;stroke:none;stroke-width:0.20921154;stroke-opacity:1"
       id="rect5308"
       width="103.06428"
       height="16.03389"
       x="-32.119808"
       y="43.298534"
       ry="8.0169449" />
    <path
       inkscape:connector-curvature="0"
       style="fill:#2389bf;fill-rule:evenodd;stroke:none;stroke-width:0.02780215"
       id="path0-2"
       d="m -23.832523,47.439708 c -0.0367,0.0054 -0.148325,0.01455 -0.248051,0.02037 -0.175126,0.01025 -0.278717,0.02585 -0.313553,0.04718 -0.04655,0.02849 -0.138511,0.06584 -0.177545,0.07207 -0.02574,0.0042 -0.06152,0.02187 -0.08616,0.04275 -0.02316,0.01965 -0.06464,0.04888 -0.09216,0.06494 -0.05408,0.03159 -0.202956,0.170983 -0.239099,0.223891 -0.01224,0.0179 -0.03806,0.0516 -0.05736,0.0749 -0.01932,0.0233 -0.04594,0.07621 -0.05914,0.117576 -0.01321,0.04137 -0.03715,0.09525 -0.05319,0.119716 -0.0404,0.06163 -0.07351,0.29979 -0.07108,0.51156 0.004,0.356451 0.03476,0.776486 0.06464,0.884108 0.0846,0.304406 0.08924,0.990147 0.0072,1.058262 -0.0097,0.008 -0.0266,0.03561 -0.03762,0.0613 -0.01977,0.04615 -0.05736,0.09261 -0.07492,0.09261 -0.005,0 -0.01974,0.01451 -0.03286,0.03225 -0.01691,0.02288 -0.04577,0.03928 -0.09939,0.0566 -0.04156,0.0134 -0.08057,0.02847 -0.08669,0.0335 -0.0061,0.005 -0.03865,0.01482 -0.07229,0.0218 -0.164562,0.03409 -0.219748,0.04379 -0.25261,0.04431 -0.05471,9.42e-4 -0.0588,0.01961 -0.05861,0.269541 1.93e-4,0.28892 -0.0063,0.275103 0.141819,0.299345 0.06267,0.01023 0.130169,0.02622 0.149992,0.03551 0.01985,0.0093 0.05736,0.02233 0.08335,0.02903 0.02599,0.0067 0.06748,0.01743 0.09216,0.02388 0.02471,0.0065 0.05849,0.02375 0.07506,0.03845 0.0166,0.01473 0.04718,0.04056 0.06798,0.05743 0.0208,0.01684 0.04904,0.05605 0.06278,0.08708 0.01373,0.03106 0.03276,0.06292 0.04229,0.07084 0.05754,0.04774 0.0833,0.668754 0.03534,0.852832 -0.0093,0.03581 -0.01696,0.09436 -0.01696,0.130086 0,0.03931 -0.0074,0.07898 -0.01871,0.100532 -0.04812,0.09158 -0.0848,0.650793 -0.06581,1.003103 0.0093,0.171817 0.03461,0.318584 0.06319,0.366014 0.02831,0.04702 0.05469,0.106455 0.05469,0.123248 0,0.02819 0.04413,0.112516 0.07123,0.136064 0.01534,0.01334 0.03765,0.04326 0.04956,0.06647 0.0119,0.02319 0.0384,0.05741 0.05885,0.07605 0.02046,0.01861 0.0427,0.04362 0.04943,0.0556 0.0067,0.01196 0.02655,0.02926 0.04406,0.03843 0.01754,0.0092 0.03867,0.02294 0.04696,0.03058 0.0083,0.0076 0.0194,0.0139 0.02469,0.0139 0.0052,0 0.01251,0.0093 0.0161,0.0206 0.0042,0.01313 0.03931,0.03341 0.09714,0.05605 0.04985,0.01951 0.09931,0.04548 0.109929,0.05772 0.02882,0.03325 0.07078,0.04462 0.282193,0.07652 0.04896,0.0074 0.11093,0.02532 0.138927,0.04023 0.05947,0.03166 0.497215,0.04262 0.520374,0.01301 0.02619,-0.03348 0.03633,-0.129808 0.03633,-0.345164 0,-0.262481 -4.18e-4,-0.263648 -0.09539,-0.263787 -0.153162,-2.61e-4 -0.31119,-0.03377 -0.416589,-0.08838 -0.0094,-0.0048 -0.0387,-0.01251 -0.06508,-0.01698 -0.03478,-0.0059 -0.06099,-0.02074 -0.09547,-0.05418 -0.02613,-0.02536 -0.05599,-0.0511 -0.06634,-0.05721 -0.02041,-0.01204 -0.03715,-0.03909 -0.07234,-0.116769 -0.01245,-0.02753 -0.03184,-0.06505 -0.04304,-0.08341 -0.0516,-0.08449 -0.06669,-0.755134 -0.0209,-0.928592 0.0089,-0.03364 0.01949,-0.08788 0.02357,-0.120522 0.004,-0.03263 0.01188,-0.06768 0.01729,-0.07785 0.06126,-0.114739 0.0719,-1.033768 0.01304,-1.127683 -0.03724,-0.05944 -0.05507,-0.0995 -0.07379,-0.165674 -0.01247,-0.04418 -0.03403,-0.08134 -0.07289,-0.125776 -0.03036,-0.03467 -0.05519,-0.0694 -0.05519,-0.07715 0,-0.01774 -0.04292,-0.05758 -0.07229,-0.06708 -0.02158,-0.007 -0.116936,-0.09261 -0.171345,-0.153857 l -0.02675,-0.03014 0.03787,-0.03339 c 0.02085,-0.01838 0.05444,-0.04137 0.07465,-0.05108 0.02021,-0.0097 0.04178,-0.02872 0.04796,-0.04225 0.0061,-0.01352 0.03297,-0.03836 0.05961,-0.05521 0.02663,-0.01684 0.0534,-0.04421 0.05953,-0.06077 0.0061,-0.01659 0.03119,-0.05169 0.05577,-0.07801 0.02458,-0.0263 0.04793,-0.06253 0.05188,-0.08049 0.0039,-0.01796 0.01179,-0.03553 0.01743,-0.03901 0.0057,-0.0035 0.01028,-0.01482 0.01028,-0.02516 2.9e-5,-0.01034 0.0111,-0.03631 0.02458,-0.05772 0.01346,-0.02141 0.03092,-0.05644 0.03876,-0.07785 0.05316,-0.145125 0.039,-0.988615 -0.01877,-1.117644 -0.07582,-0.169344 -0.09266,-0.984975 -0.02319,-1.123152 0.04207,-0.08366 0.11777,-0.193253 0.144321,-0.208989 0.01588,-0.0094 0.04641,-0.03431 0.06781,-0.05532 0.06405,-0.06297 0.131949,-0.07851 0.420702,-0.09645 0.231203,-0.01434 0.224308,-0.0032 0.224308,-0.360899 0,-0.299819 -0.02046,-0.321172 -0.272461,-0.284222 m 4.82398,-0.0036 c -0.08669,0.0079 -0.09205,0.02608 -0.09205,0.312663 0,0.13776 0.0045,0.247856 0.01025,0.251415 0.0057,0.0035 0.01356,0.0213 0.01756,0.0396 0.004,0.01826 0.01315,0.0337 0.02033,0.03426 0.0071,5.77e-4 0.09308,0.0053 0.190944,0.01048 0.24035,0.01273 0.343997,0.03364 0.38367,0.07735 0.0092,0.01009 0.0342,0.02797 0.05561,0.03967 0.06186,0.03386 0.08913,0.06233 0.113126,0.118103 0.01231,0.02864 0.03234,0.06105 0.04451,0.07207 0.02886,0.02611 0.05369,0.08649 0.05358,0.130282 -2.8e-5,0.01913 0.0084,0.08535 0.01885,0.147157 0.01684,0.09984 0.01738,0.130809 0.0048,0.278021 -0.0077,0.09111 -0.01852,0.238209 -0.02394,0.326897 -0.01415,0.230619 -0.03148,0.356258 -0.0546,0.395792 -0.03189,0.05455 -0.04815,0.288781 -0.04359,0.627328 l 0.004,0.294703 0.04226,0.08538 c 0.02327,0.04698 0.04532,0.104536 0.04904,0.12789 0.0075,0.0472 0.01832,0.06634 0.09497,0.168147 0.02905,0.03859 0.05282,0.07707 0.05282,0.08549 0,0.0085 0.01015,0.01857 0.02258,0.02253 0.01239,0.0039 0.04367,0.02844 0.0695,0.05447 0.02581,0.02602 0.06194,0.05689 0.08029,0.06858 0.04061,0.02586 0.05594,0.0374 0.08588,0.06481 l 0.02316,0.02116 -0.0434,0.0385 c -0.02388,0.02119 -0.06903,0.06173 -0.100367,0.09005 -0.0313,0.02835 -0.07067,0.06144 -0.08744,0.07351 -0.01676,0.01209 -0.04796,0.04963 -0.06931,0.08341 -0.02136,0.03381 -0.05288,0.07646 -0.07003,0.09481 -0.01715,0.01835 -0.0372,0.05588 -0.04454,0.08341 -0.0074,0.02753 -0.01749,0.06005 -0.02255,0.07229 -0.005,0.01224 -0.01268,0.03475 -0.01691,0.05004 -0.0042,0.01529 -0.0163,0.04032 -0.02675,0.05561 -0.0608,0.08886 -0.06166,0.813268 -0.0012,1.00616 0.03314,0.105704 0.04485,0.193726 0.06138,0.461794 0.0085,0.13762 0.01902,0.281525 0.02341,0.319781 0.01688,0.147184 -0.03559,0.472135 -0.08293,0.513644 -0.01084,0.0095 -0.02874,0.03639 -0.03973,0.0597 -0.01101,0.02332 -0.03242,0.05085 -0.04758,0.06117 -0.0255,0.01738 -0.05877,0.04866 -0.09789,0.09197 -0.0087,0.0097 -0.03715,0.02296 -0.06317,0.02955 -0.02599,0.0066 -0.08482,0.02538 -0.130698,0.04176 -0.140012,0.05004 -0.196784,0.06125 -0.310217,0.06125 -0.153746,0 -0.145766,-0.01527 -0.145572,0.278884 1.45e-4,0.233982 0.0085,0.301375 0.04117,0.33407 0.02377,0.02377 0.502079,0.0066 0.553623,-0.01996 0.02447,-0.01256 0.09453,-0.0315 0.155692,-0.04207 0.135231,-0.02336 0.194589,-0.04212 0.248024,-0.07843 0.02241,-0.0152 0.04713,-0.02766 0.05496,-0.02766 0.0079,0 0.02294,-0.0046 0.03355,-0.01018 0.01062,-0.0057 0.03778,-0.01821 0.06033,-0.028 0.02258,-0.0098 0.04409,-0.0275 0.04785,-0.03931 0.0037,-0.01179 0.01738,-0.02483 0.0303,-0.02891 0.02707,-0.0086 0.208905,-0.184523 0.208905,-0.202122 0,-0.0064 0.01768,-0.02944 0.03929,-0.05104 0.02516,-0.02516 0.04743,-0.06411 0.06194,-0.108345 0.02024,-0.06166 0.04771,-0.11688 0.06595,-0.132617 0.02241,-0.01932 0.04126,-0.112821 0.06837,-0.339186 0.01707,-0.142569 0.02314,-0.438551 0.01037,-0.505999 -0.0063,-0.03364 -0.01961,-0.173764 -0.02942,-0.311384 -0.01749,-0.245633 -0.03103,-0.345136 -0.0665,-0.489319 -0.02874,-0.116852 -0.04117,-0.30257 -0.035,-0.52268 0.006,-0.212047 0.01003,-0.232176 0.06272,-0.311384 0.01017,-0.01529 0.02689,-0.05032 0.03715,-0.07785 0.01229,-0.03297 0.03227,-0.0593 0.05861,-0.0772 0.022,-0.01493 0.05653,-0.0437 0.07677,-0.06395 0.02024,-0.02024 0.04379,-0.03678 0.05235,-0.03678 0.0086,0 0.02033,-0.004 0.02613,-0.0091 0.0058,-0.005 0.03809,-0.01572 0.07173,-0.0238 0.03364,-0.0081 0.09864,-0.02653 0.144431,-0.04095 0.04579,-0.01443 0.109207,-0.02625 0.140902,-0.02625 0.09611,0 0.103897,-0.0223 0.103897,-0.297566 0,-0.275408 0.005,-0.265427 -0.1404,-0.281525 -0.05991,-0.0067 -0.139651,-0.02513 -0.194616,-0.04512 -0.05124,-0.01862 -0.113156,-0.03929 -0.137621,-0.04587 -0.05574,-0.01502 -0.09183,-0.03787 -0.09989,-0.06325 -0.0034,-0.01079 -0.02305,-0.0287 -0.04359,-0.03976 -0.03656,-0.01969 -0.07337,-0.06733 -0.07337,-0.095 0,-0.0076 -0.01157,-0.02939 -0.02572,-0.04832 -0.05516,-0.07387 -0.05769,-0.09222 -0.05769,-0.418089 0,-0.304489 0.0026,-0.333848 0.04462,-0.494879 0.02669,-0.102367 0.03931,-0.19884 0.05095,-0.389229 0.0063,-0.10398 0.01655,-0.231592 0.02266,-0.283582 0.01783,-0.151384 0.02402,-0.433019 0.0109,-0.49488 -0.0064,-0.03058 -0.0196,-0.121634 -0.02911,-0.202343 -0.01739,-0.147272 -0.02406,-0.169902 -0.0684,-0.231762 -0.01318,-0.01838 -0.03256,-0.05974 -0.0431,-0.09194 -0.01107,-0.03386 -0.0389,-0.0806 -0.06603,-0.110959 -0.0258,-0.02889 -0.05394,-0.06733 -0.06255,-0.08546 -0.0086,-0.01813 -0.03586,-0.04651 -0.06061,-0.06311 -0.02471,-0.01659 -0.05135,-0.04218 -0.05922,-0.05686 -0.0079,-0.01468 -0.0357,-0.03553 -0.06189,-0.04632 -0.02615,-0.01079 -0.07448,-0.03998 -0.107344,-0.06487 -0.03286,-0.02485 -0.07988,-0.04971 -0.104453,-0.05522 -0.0246,-0.0055 -0.07976,-0.02624 -0.122579,-0.04616 -0.12714,-0.05908 -0.156304,-0.06514 -0.360678,-0.07501 -0.107455,-0.0051 -0.230396,-0.01429 -0.273211,-0.02021 -0.07946,-0.01101 -0.08749,-0.01118 -0.169288,-0.0038 m -3.902951,3.479997 c -0.0231,0.0034 -0.05196,0.02227 -0.08324,0.05453 -0.02633,0.02716 -0.05313,0.0494 -0.05955,0.0494 -0.01285,0 -0.04983,0.05721 -0.04983,0.07709 0,0.0069 -0.01801,0.05043 -0.04,0.09681 -0.0439,0.09253 -0.04407,0.101061 -0.0042,0.215327 0.06829,0.195561 0.126112,0.263732 0.241462,0.2845 0.023,0.0042 0.04787,0.01235 0.05529,0.01821 0.01607,0.01276 0.120801,0.0057 0.196117,-0.01338 0.07732,-0.01946 0.156553,-0.07223 0.181131,-0.120605 0.01139,-0.02247 0.02375,-0.04334 0.02744,-0.0464 0.01212,-0.01007 0.05649,-0.137983 0.06561,-0.189054 0.01081,-0.0607 0.0037,-0.10248 -0.02725,-0.161253 -0.0129,-0.02447 -0.03205,-0.06712 -0.04256,-0.09481 -0.01321,-0.03478 -0.04012,-0.06881 -0.08713,-0.11018 l -0.068,-0.05986 -0.13498,-0.0027 c -0.07423,-0.0015 -0.150882,-4.16e-4 -0.170343,0.0024 m 1.456833,8.75e-4 c -0.03797,0.0035 -0.05424,0.01284 -0.08897,0.05149 -0.02335,0.02599 -0.05124,0.0506 -0.06198,0.05466 -0.01071,0.004 -0.02761,0.0263 -0.03752,0.04943 -0.01,0.0231 -0.02413,0.05455 -0.03155,0.06984 -0.02925,0.06047 -0.04349,0.153662 -0.03016,0.197395 0.007,0.02294 0.0209,0.07629 0.03094,0.118576 0.02511,0.105648 0.05649,0.159363 0.11004,0.188248 0.02447,0.01321 0.04698,0.02681 0.05004,0.03016 0.04671,0.05172 0.274658,0.04476 0.397461,-0.01212 0.02591,-0.012 0.05229,-0.02183 0.05861,-0.02183 0.0063,0 0.01713,-0.01376 0.02402,-0.03058 0.0069,-0.01682 0.03261,-0.0731 0.05722,-0.125026 0.05813,-0.122858 0.06503,-0.258532 0.01648,-0.323673 -0.01551,-0.02082 -0.03175,-0.05284 -0.03612,-0.0712 -0.01317,-0.05561 -0.143626,-0.16837 -0.204374,-0.176711 -0.05043,-0.007 -0.170287,-0.0063 -0.254139,0.0013 m 1.469956,-0.0015 c -0.01223,0.003 -0.03336,0.0078 -0.04693,0.01067 -0.0136,0.0029 -0.04318,0.02521 -0.06573,0.04963 -0.02258,0.02438 -0.04763,0.04435 -0.05569,0.04435 -0.07679,0 -0.119049,0.346887 -0.06027,0.494739 0.04093,0.103008 0.09742,0.148297 0.236707,0.189778 0.0615,0.01832 0.09425,0.01813 0.208767,-0.0011 0.08027,-0.01354 0.175126,-0.07067 0.193475,-0.116519 0.0093,-0.02325 0.02166,-0.04518 0.02753,-0.04879 0.05877,-0.03633 0.09052,-0.330402 0.04099,-0.379945 -0.01093,-0.01095 -0.02964,-0.04273 -0.04151,-0.07065 -0.02063,-0.04841 -0.04788,-0.0784 -0.128919,-0.141958 -0.03608,-0.02831 -0.235929,-0.04779 -0.30841,-0.03011" />
    <g
       aria-label="vaadin on kotlin"
       transform="matrix(0.25437005,0,0,0.25437005,-45.429651,17.036029)"
       style="font-style:normal;font-weight:normal;font-size:40px;line-height:125%;font-family:sans-serif;letter-spacing:0px;word-spacing:0px;fill:#ffffff;fill-opacity:1;stroke:none;stroke-width:1px;stroke-linecap:butt;stroke-linejoin:miter;stroke-opacity:1"
       id="flowRoot5230-4">
      <path
         d="m 121.10547,129.42032 h 6.99219 v 3.35937 h -1.89453 l 4.99999,13.94532 4.88282,-13.94532 h -1.23047 v -3.35937 h 6.40625 v 3.35937 h -1.73828 l -6.6211,17.1875 h -3.59375 l -6.60156,-17.1875 h -1.60156 z"
         style="font-style:normal;font-variant:normal;font-weight:normal;font-stretch:normal;font-size:40px;font-family:Arvo;-inkscape-font-specification:'Arvo, Normal';font-variant-ligatures:normal;font-variant-caps:normal;font-variant-numeric:normal;font-feature-settings:normal;text-align:start;writing-mode:lr-tb;text-anchor:start;fill:#ffffff;fill-opacity:1"
         id="path1450" />
      <path
         d="m 156.04687,147.77969 q -1.15234,1.07422 -2.55859,1.75782 -1.38672,0.68359 -3.16406,0.68359 -1.48438,0 -2.73438,-0.46875 -1.23047,-0.46875 -2.1289,-1.26953 -0.89844,-0.82031 -1.40625,-1.89453 -0.48828,-1.07422 -0.48828,-2.28516 0,-1.28906 0.37109,-2.28515 0.39062,-0.9961 1.01562,-1.71875 0.64454,-0.74219 1.48438,-1.23047 0.85937,-0.50782 1.77734,-0.80078 0.9375,-0.3125 1.89453,-0.42969 0.97657,-0.13672 1.85547,-0.13672 1.40625,0 2.36328,0.0977 0.95704,0.0781 1.73829,0.23437 l 0.0195,-1.66016 q 0,-1.07421 -0.3125,-1.85546 -0.3125,-0.80079 -0.87891,-1.3086 -0.56641,-0.52734 -1.36719,-0.78125 -0.78125,-0.2539 -1.75781,-0.2539 -0.91797,0 -1.75781,0.13671 -0.83985,0.11719 -1.58203,0.33204 -0.72266,0.19531 -1.34766,0.46875 -0.60547,0.2539 -1.03516,0.54687 l -1.1914,-2.51953 q 0.72265,-0.46875 1.58203,-0.85938 0.85937,-0.41015 1.79687,-0.68359 0.95704,-0.29297 1.9336,-0.44922 0.99609,-0.17578 1.95312,-0.17578 1.75782,0 3.16407,0.42969 1.40625,0.41015 2.38281,1.28906 0.97656,0.87891 1.5039,2.24609 0.52735,1.34766 0.52735,3.24219 l -0.0195,10.11719 h 2.24609 v 3.35937 h -5.87891 z m -4.92187,-0.60546 q 0.72266,0 1.44531,-0.17579 0.72266,-0.17578 1.36719,-0.46875 0.64453,-0.3125 1.19141,-0.70312 0.54687,-0.41016 0.91796,-0.83984 l 0.0195,-4.57032 h -4.21875 q -1.05469,0 -1.9336,0.23438 -0.85937,0.23437 -1.5039,0.68359 -0.625,0.44922 -0.97657,1.11328 -0.35156,0.66407 -0.35156,1.52344 0,0.80078 0.29297,1.40625 0.29297,0.58594 0.82031,0.99609 0.54688,0.39063 1.28906,0.60547 0.74219,0.19532 1.64063,0.19532 z"
         style="font-style:normal;font-variant:normal;font-weight:normal;font-stretch:normal;font-size:40px;font-family:Arvo;-inkscape-font-specification:'Arvo, Normal';font-variant-ligatures:normal;font-variant-caps:normal;font-variant-numeric:normal;font-feature-settings:normal;text-align:start;writing-mode:lr-tb;text-anchor:start;fill:#ffffff;fill-opacity:1"
         id="path1452" />
      <path
         d="m 177.92187,147.77969 q -1.15234,1.07422 -2.55859,1.75782 -1.38672,0.68359 -3.16406,0.68359 -1.48438,0 -2.73438,-0.46875 -1.23047,-0.46875 -2.1289,-1.26953 -0.89844,-0.82031 -1.40625,-1.89453 -0.48828,-1.07422 -0.48828,-2.28516 0,-1.28906 0.37109,-2.28515 0.39062,-0.9961 1.01562,-1.71875 0.64454,-0.74219 1.48438,-1.23047 0.85937,-0.50782 1.77734,-0.80078 0.9375,-0.3125 1.89453,-0.42969 0.97657,-0.13672 1.85547,-0.13672 1.40625,0 2.36328,0.0977 0.95704,0.0781 1.73829,0.23437 l 0.0195,-1.66016 q 0,-1.07421 -0.3125,-1.85546 -0.3125,-0.80079 -0.87891,-1.3086 -0.56641,-0.52734 -1.36719,-0.78125 -0.78125,-0.2539 -1.75781,-0.2539 -0.91797,0 -1.75781,0.13671 -0.83985,0.11719 -1.58203,0.33204 -0.72266,0.19531 -1.34766,0.46875 -0.60547,0.2539 -1.03516,0.54687 l -1.1914,-2.51953 q 0.72265,-0.46875 1.58203,-0.85938 0.85937,-0.41015 1.79687,-0.68359 0.95704,-0.29297 1.9336,-0.44922 0.99609,-0.17578 1.95312,-0.17578 1.75782,0 3.16407,0.42969 1.40625,0.41015 2.38281,1.28906 0.97656,0.87891 1.5039,2.24609 0.52735,1.34766 0.52735,3.24219 l -0.0195,10.11719 h 2.24609 v 3.35937 h -5.87891 z M 173,147.17423 q 0.72266,0 1.44531,-0.17579 0.72266,-0.17578 1.36719,-0.46875 0.64453,-0.3125 1.19141,-0.70312 0.54687,-0.41016 0.91796,-0.83984 l 0.0195,-4.57032 h -4.21875 q -1.05469,0 -1.9336,0.23438 -0.85937,0.23437 -1.5039,0.68359 -0.625,0.44922 -0.97657,1.11328 -0.35156,0.66407 -0.35156,1.52344 0,0.80078 0.29297,1.40625 0.29297,0.58594 0.82031,0.99609 0.54688,0.39063 1.28906,0.60547 0.74219,0.19532 1.64063,0.19532 z"
         style="font-style:normal;font-variant:normal;font-weight:normal;font-stretch:normal;font-size:40px;font-family:Arvo;-inkscape-font-specification:'Arvo, Normal';font-variant-ligatures:normal;font-variant-caps:normal;font-variant-numeric:normal;font-feature-settings:normal;text-align:start;writing-mode:lr-tb;text-anchor:start;fill:#ffffff;fill-opacity:1"
         id="path1454" />
      <path
         d="m 199.83594,119.26407 h 6.38672 v 27.03125 h 2.96875 v 3.35937 h -6.60157 v -1.66015 q -0.97656,0.99609 -2.26562,1.5625 -1.28906,0.54687 -2.92969,0.54687 -2.05078,0 -3.82812,-0.70312 -1.75782,-0.72266 -3.06641,-2.08985 -1.28906,-1.38671 -2.03125,-3.3789 -0.72266,-2.01172 -0.72266,-4.58985 0,-2.34375 0.70313,-4.25781 0.70312,-1.93359 1.99219,-3.28125 1.28906,-1.36719 3.10546,-2.10937 1.81641,-0.76172 4.04297,-0.76172 1.46485,0 2.67578,0.33203 1.21094,0.3125 2.32422,1.11328 v -7.75391 h -2.7539 z m -1.97266,27.67578 q 1.62109,0 2.71484,-0.46875 1.09375,-0.48828 2.01172,-1.44531 v -11.32813 q -0.97656,-0.82031 -2.24609,-1.1914 -1.26953,-0.3711 -2.59766,-0.3711 -1.28906,0 -2.42187,0.48828 -1.13281,0.46875 -1.99219,1.38672 -0.83984,0.91797 -1.32812,2.2461 -0.48829,1.32812 -0.48829,3.04687 0,1.875 0.46875,3.30078 0.46875,1.42578 1.3086,2.40235 0.83984,0.95703 2.01172,1.44531 1.17187,0.48828 2.55859,0.48828 z"
         style="font-style:normal;font-variant:normal;font-weight:normal;font-stretch:normal;font-size:40px;font-family:Arvo;-inkscape-font-specification:'Arvo, Normal';font-variant-ligatures:normal;font-variant-caps:normal;font-variant-numeric:normal;font-feature-settings:normal;text-align:start;writing-mode:lr-tb;text-anchor:start;fill:#ffffff;fill-opacity:1"
         id="path1456" />
      <path
         d="m 212.51172,129.42032 h 6.60156 v 16.875 h 3.04688 v 3.35937 h -9.60938 v -3.35937 h 2.89063 v -13.51563 h -2.92969 z m 2.24609,-7.16797 q 0,-0.50781 0.19531,-0.95703 0.21485,-0.46875 0.54688,-0.80078 0.35156,-0.35156 0.82031,-0.54688 0.46875,-0.21484 0.9961,-0.21484 0.50781,0 0.95703,0.21484 0.46875,0.19532 0.80078,0.54688 0.35156,0.33203 0.54687,0.80078 0.21485,0.44922 0.21485,0.95703 0,0.52734 -0.21485,0.99609 -0.19531,0.46875 -0.54687,0.83985 -0.33203,0.35156 -0.80078,0.5664 -0.44922,0.19532 -0.95703,0.19532 -0.52735,0 -0.9961,-0.19532 -0.46875,-0.21484 -0.82031,-0.5664 -0.33203,-0.3711 -0.54688,-0.83985 -0.19531,-0.46875 -0.19531,-0.99609 z"
         style="font-style:normal;font-variant:normal;font-weight:normal;font-stretch:normal;font-size:40px;font-family:Arvo;-inkscape-font-specification:'Arvo, Normal';font-variant-ligatures:normal;font-variant-caps:normal;font-variant-numeric:normal;font-feature-settings:normal;text-align:start;writing-mode:lr-tb;text-anchor:start;fill:#ffffff;fill-opacity:1"
         id="path1458" />
      <path
         d="m 238.80078,146.29532 h 2.85156 v -9.23828 q 0,-2.32422 -1.1914,-3.51563 -1.17188,-1.21093 -3.37891,-1.21093 -1.26953,0 -2.55859,0.60546 -1.28907,0.60547 -2.44141,1.50391 v 11.85547 h 2.85156 v 3.35937 h -9.45312 v -3.35937 h 2.8125 v -13.51563 h -2.8125 v -3.35937 h 6.44531 v 2.38281 h 0.0391 q 0.64453,-0.5664 1.36719,-1.07422 0.74219,-0.50781 1.54297,-0.8789 0.80078,-0.3711 1.66016,-0.58594 0.8789,-0.21484 1.83593,-0.21484 1.6211,0 2.92969,0.44921 1.30859,0.44922 2.22656,1.36719 0.91797,0.91797 1.40625,2.36328 0.50782,1.42578 0.50782,3.37891 v 9.6875 h 2.8125 v 3.35937 h -9.45313 z"
         style="font-style:normal;font-variant:normal;font-weight:normal;font-stretch:normal;font-size:40px;font-family:Arvo;-inkscape-font-specification:'Arvo, Normal';font-variant-ligatures:normal;font-variant-caps:normal;font-variant-numeric:normal;font-feature-settings:normal;text-align:start;writing-mode:lr-tb;text-anchor:start;fill:#ffffff;fill-opacity:1"
         id="path1460" />
      <path
         d="M 250.24609,149.65469 Z"
         style="font-style:normal;font-variant:normal;font-weight:normal;font-stretch:normal;font-size:40px;font-family:Arvo;-inkscape-font-specification:'Arvo, Normal';font-variant-ligatures:normal;font-variant-caps:normal;font-variant-numeric:normal;font-feature-settings:normal;text-align:start;writing-mode:lr-tb;text-anchor:start;fill:#ffffff;fill-opacity:1"
         id="path1462" />
      <path
         d="m 260.67578,139.53751 q 0.0195,-2.40235 0.76172,-4.375 0.76172,-1.97266 2.10937,-3.37891 1.34766,-1.42578 3.20313,-2.1875 1.85547,-0.76172 4.08203,-0.76172 2.24609,0 4.10156,0.76172 1.875,0.76172 3.20313,2.16797 1.32812,1.38672 2.07031,3.35937 0.74219,1.97266 0.74219,4.375 0,2.36329 -0.74219,4.35547 -0.74219,1.97266 -2.07031,3.39844 -1.32813,1.42578 -3.20313,2.22656 -1.85547,0.78125 -4.10156,0.78125 -2.28516,0 -4.14062,-0.78125 -1.85547,-0.78125 -3.1836,-2.1875 -1.32812,-1.42578 -2.07031,-3.39843 -0.74219,-1.97266 -0.76172,-4.35547 z m 3.84766,0 q 0,1.73828 0.48828,3.14453 0.50781,1.40625 1.36719,2.40234 0.8789,0.97656 2.01171,1.52344 1.15235,0.52734 2.44141,0.52734 1.34766,0 2.5,-0.52734 1.17188,-0.52734 2.03125,-1.50391 0.85938,-0.99609 1.34766,-2.40234 0.48828,-1.40625 0.48828,-3.16406 0,-1.83594 -0.48828,-3.26172 -0.48828,-1.42578 -1.34766,-2.38281 -0.83984,-0.95704 -2.01172,-1.44532 -1.17187,-0.48828 -2.51953,-0.48828 -1.28906,0 -2.44141,0.48828 -1.13281,0.48828 -2.01171,1.44532 -0.85938,0.95703 -1.36719,2.38281 -0.48828,1.42578 -0.48828,3.26172 z"
         style="font-style:normal;font-variant:normal;font-weight:normal;font-stretch:normal;font-size:40px;font-family:Arvo;-inkscape-font-specification:'Arvo, Normal';font-variant-ligatures:normal;font-variant-caps:normal;font-variant-numeric:normal;font-feature-settings:normal;text-align:start;writing-mode:lr-tb;text-anchor:start;fill:#ffffff;fill-opacity:1"
         id="path1464" />
      <path
         d="m 298.17578,146.29532 h 2.85156 v -9.23828 q 0,-2.32422 -1.1914,-3.51563 -1.17188,-1.21093 -3.37891,-1.21093 -1.26953,0 -2.55859,0.60546 -1.28907,0.60547 -2.44141,1.50391 v 11.85547 h 2.85156 v 3.35937 h -9.45312 v -3.35937 h 2.8125 v -13.51563 h -2.8125 v -3.35937 h 6.44531 v 2.38281 h 0.0391 q 0.64453,-0.5664 1.36719,-1.07422 0.74219,-0.50781 1.54297,-0.8789 0.80078,-0.3711 1.66016,-0.58594 0.8789,-0.21484 1.83593,-0.21484 1.6211,0 2.92969,0.44921 1.30859,0.44922 2.22656,1.36719 0.91797,0.91797 1.40625,2.36328 0.50782,1.42578 0.50782,3.37891 v 9.6875 h 2.8125 v 3.35937 h -9.45313 z"
         style="font-style:normal;font-variant:normal;font-weight:normal;font-stretch:normal;font-size:40px;font-family:Arvo;-inkscape-font-specification:'Arvo, Normal';font-variant-ligatures:normal;font-variant-caps:normal;font-variant-numeric:normal;font-feature-settings:normal;text-align:start;writing-mode:lr-tb;text-anchor:start;fill:#ffffff;fill-opacity:1"
         id="path1466" />
      <path
         d="M 309.62109,149.65469 Z"
         style="font-style:normal;font-variant:normal;font-weight:normal;font-stretch:normal;font-size:40px;font-family:Arvo;-inkscape-font-specification:'Arvo, Normal';font-variant-ligatures:normal;font-variant-caps:normal;font-variant-numeric:normal;font-feature-settings:normal;text-align:start;writing-mode:lr-tb;text-anchor:start;fill:#ffffff;fill-opacity:1"
         id="path1468" />
      <path
         d="m 320.16797,119.26407 h 7.1289 v 3.35937 h -0.0391 v 15.11719 h 3.51563 l 4.80468,-4.96094 h -1.21093 v -3.35937 h 7.67578 v 3.35937 h -2.5586 l -6.15234,6.34766 6.71875,7.16797 h 2.44141 v 3.35937 h -4.27735 l -8.28125,-9.04296 h -2.67578 v 5.68359 h 1.67969 v 3.35937 h -8.65234 v -3.35937 h 3.32031 v -23.67188 h -3.4375 z"
         style="font-style:normal;font-variant:normal;font-weight:normal;font-stretch:normal;font-size:40px;font-family:Arvo;-inkscape-font-specification:'Arvo, Normal';font-variant-ligatures:normal;font-variant-caps:normal;font-variant-numeric:normal;font-feature-settings:normal;text-align:start;writing-mode:lr-tb;text-anchor:start;fill:#ffffff;fill-opacity:1"
         id="path1470" />
      <path
         d="m 345.20703,139.53751 q 0.0195,-2.40235 0.76172,-4.375 0.76172,-1.97266 2.10937,-3.37891 1.34766,-1.42578 3.20313,-2.1875 1.85547,-0.76172 4.08203,-0.76172 2.24609,0 4.10156,0.76172 1.875,0.76172 3.20313,2.16797 1.32812,1.38672 2.07031,3.35937 0.74219,1.97266 0.74219,4.375 0,2.36329 -0.74219,4.35547 -0.74219,1.97266 -2.07031,3.39844 -1.32813,1.42578 -3.20313,2.22656 -1.85547,0.78125 -4.10156,0.78125 -2.28516,0 -4.14062,-0.78125 -1.85547,-0.78125 -3.1836,-2.1875 -1.32812,-1.42578 -2.07031,-3.39843 -0.74219,-1.97266 -0.76172,-4.35547 z m 3.84766,0 q 0,1.73828 0.48828,3.14453 0.50781,1.40625 1.36719,2.40234 0.8789,0.97656 2.01171,1.52344 1.15235,0.52734 2.44141,0.52734 1.34766,0 2.5,-0.52734 1.17188,-0.52734 2.03125,-1.50391 0.85938,-0.99609 1.34766,-2.40234 0.48828,-1.40625 0.48828,-3.16406 0,-1.83594 -0.48828,-3.26172 -0.48828,-1.42578 -1.34766,-2.38281 -0.83984,-0.95704 -2.01172,-1.44532 -1.17187,-0.48828 -2.51953,-0.48828 -1.28906,0 -2.44141,0.48828 -1.13281,0.48828 -2.01171,1.44532 -0.85938,0.95703 -1.36719,2.38281 -0.48828,1.42578 -0.48828,3.26172 z"
         style="font-style:normal;font-variant:normal;font-weight:normal;font-stretch:normal;font-size:40px;font-family:Arvo;-inkscape-font-specification:'Arvo, Normal';font-variant-ligatures:normal;font-variant-caps:normal;font-variant-numeric:normal;font-feature-settings:normal;text-align:start;writing-mode:lr-tb;text-anchor:start;fill:#ffffff;fill-opacity:1"
         id="path1472" />
      <path
         d="m 375.24609,129.42032 h 4.7461 v 2.94922 h -4.78516 l -0.0586,11.67969 q 0,1.1914 0.27343,1.93359 0.27344,0.74219 0.87891,1.03516 0.60547,0.27343 1.36719,0.27343 0.82031,0 1.44531,-0.13672 0.625,-0.15625 1.36719,-0.50781 l 0.83984,2.44141 q -0.9375,0.48828 -1.97265,0.76172 -1.03516,0.29297 -2.44141,0.29297 -1.32813,0 -2.32422,-0.33204 -0.97656,-0.3125 -1.66016,-1.07421 -0.66406,-0.76172 -0.99609,-2.03125 -0.33203,-1.28907 -0.33203,-3.20313 l 0.0586,-11.13281 h -3.22265 v -2.94922 h 3.26172 v -4.84375 l 3.55468,-1.67969 z"
         style="font-style:normal;font-variant:normal;font-weight:normal;font-stretch:normal;font-size:40px;font-family:Arvo;-inkscape-font-specification:'Arvo, Normal';font-variant-ligatures:normal;font-variant-caps:normal;font-variant-numeric:normal;font-feature-settings:normal;text-align:start;writing-mode:lr-tb;text-anchor:start;fill:#ffffff;fill-opacity:1"
         id="path1474" />
      <path
         d="m 384.15234,119.26407 h 6.5625 v 27.03125 h 3.04688 v 3.35937 h -9.60938 v -3.35937 h 2.92969 v -23.67188 h -2.92969 z"
         style="font-style:normal;font-variant:normal;font-weight:normal;font-stretch:normal;font-size:40px;font-family:Arvo;-inkscape-font-specification:'Arvo, Normal';font-variant-ligatures:normal;font-variant-caps:normal;font-variant-numeric:normal;font-feature-settings:normal;text-align:start;writing-mode:lr-tb;text-anchor:start;fill:#ffffff;fill-opacity:1"
         id="path1476" />
      <path
         d="m 397.19922,129.42032 h 6.60156 v 16.875 h 3.04688 v 3.35937 h -9.60938 v -3.35937 h 2.89063 v -13.51563 h -2.92969 z m 2.24609,-7.16797 q 0,-0.50781 0.19531,-0.95703 0.21485,-0.46875 0.54688,-0.80078 0.35156,-0.35156 0.82031,-0.54688 0.46875,-0.21484 0.9961,-0.21484 0.50781,0 0.95703,0.21484 0.46875,0.19532 0.80078,0.54688 0.35156,0.33203 0.54687,0.80078 0.21485,0.44922 0.21485,0.95703 0,0.52734 -0.21485,0.99609 -0.19531,0.46875 -0.54687,0.83985 -0.33203,0.35156 -0.80078,0.5664 -0.44922,0.19532 -0.95703,0.19532 -0.52735,0 -0.9961,-0.19532 -0.46875,-0.21484 -0.82031,-0.5664 -0.33203,-0.3711 -0.54688,-0.83985 -0.19531,-0.46875 -0.19531,-0.99609 z"
         style="font-style:normal;font-variant:normal;font-weight:normal;font-stretch:normal;font-size:40px;font-family:Arvo;-inkscape-font-specification:'Arvo, Normal';font-variant-ligatures:normal;font-variant-caps:normal;font-variant-numeric:normal;font-feature-settings:normal;text-align:start;writing-mode:lr-tb;text-anchor:start;fill:#ffffff;fill-opacity:1"
         id="path1478" />
      <path
         d="m 423.48828,146.29532 h 2.85156 v -9.23828 q 0,-2.32422 -1.1914,-3.51563 -1.17188,-1.21093 -3.37891,-1.21093 -1.26953,0 -2.55859,0.60546 -1.28907,0.60547 -2.44141,1.50391 v 11.85547 h 2.85156 v 3.35937 h -9.45312 v -3.35937 h 2.8125 v -13.51563 h -2.8125 v -3.35937 h 6.44531 v 2.38281 h 0.0391 q 0.64453,-0.5664 1.36719,-1.07422 0.74219,-0.50781 1.54297,-0.8789 0.80078,-0.3711 1.66016,-0.58594 0.8789,-0.21484 1.83593,-0.21484 1.6211,0 2.92969,0.44921 1.30859,0.44922 2.22656,1.36719 0.91797,0.91797 1.40625,2.36328 0.50782,1.42578 0.50782,3.37891 v 9.6875 h 2.8125 v 3.35937 h -9.45313 z"
         style="font-style:normal;font-variant:normal;font-weight:normal;font-stretch:normal;font-size:40px;font-family:Arvo;-inkscape-font-specification:'Arvo, Normal';font-variant-ligatures:normal;font-variant-caps:normal;font-variant-numeric:normal;font-feature-settings:normal;text-align:start;writing-mode:lr-tb;text-anchor:start;fill:#ffffff;fill-opacity:1"
         id="path1480" />
    </g>
  </g>
</svg>
